<svg width="271" height="38" viewBox="0 0 271 38" fill="none" xmlns="http://www.w3.org/2000/svg">
<path d="M0.7 37V0.549997H10.735C13.195 0.549997 15.325 0.819997 17.125 1.36C18.925 1.9 20.32 2.875 21.31 4.285C22.33 5.665 22.84 7.63 22.84 10.18C22.84 11.68 22.72 13.015 22.48 14.185C22.24 15.355 21.79 16.375 21.13 17.245C20.5 18.085 19.585 18.79 18.385 19.36L23.38 37H15.055L11.05 20.665H8.755V37H0.7ZM8.755 16.03H11.005C12.145 16.03 13.03 15.835 13.66 15.445C14.29 15.025 14.725 14.44 14.965 13.69C15.235 12.91 15.37 11.98 15.37 10.9C15.37 9.34 15.085 8.125 14.515 7.255C13.945 6.385 12.895 5.95 11.365 5.95H8.755V16.03ZM27.5066 37V0.549997H43.8866V6.04H35.5616V15.085H41.9066V20.665H35.5616V31.555H43.9766V37H27.5066ZM47.6336 37V0.549997H64.0136V6.04H55.6886V15.085H62.0336V20.665H55.6886V31.555H64.1036V37H47.6336ZM67.7605 37V0.549997H73.4305L80.9005 18.1V0.549997H87.5605V37H82.1155L74.6455 18.1V37H67.7605ZM103.425 37.54C100.665 37.54 98.4752 37.045 96.8552 36.055C95.2652 35.035 94.1402 33.625 93.4802 31.825C92.8202 29.995 92.4902 27.85 92.4902 25.39V12.25C92.4902 9.73 92.8202 7.57 93.4802 5.77C94.1402 3.94 95.2652 2.53 96.8552 1.54C98.4752 0.549998 100.665 0.0549982 103.425 0.0549982C106.125 0.0549982 108.225 0.504999 109.725 1.405C111.255 2.275 112.335 3.505 112.965 5.095C113.595 6.685 113.91 8.515 113.91 10.585V13.735H106.035V10.09C106.035 9.37 105.99 8.68 105.9 8.02C105.84 7.36 105.63 6.82 105.27 6.4C104.91 5.95 104.295 5.725 103.425 5.725C102.585 5.725 101.955 5.95 101.535 6.4C101.145 6.85 100.89 7.42 100.77 8.11C100.68 8.77 100.635 9.475 100.635 10.225V27.37C100.635 28.18 100.695 28.93 100.815 29.62C100.965 30.28 101.235 30.82 101.625 31.24C102.045 31.63 102.645 31.825 103.425 31.825C104.265 31.825 104.865 31.615 105.225 31.195C105.585 30.745 105.81 30.175 105.9 29.485C105.99 28.795 106.035 28.09 106.035 27.37V23.545H113.91V26.695C113.91 28.765 113.595 30.625 112.965 32.275C112.365 33.895 111.3 35.185 109.77 36.145C108.27 37.075 106.155 37.54 103.425 37.54ZM128.782 37.54C126.052 37.54 123.892 37.06 122.302 36.1C120.712 35.14 119.572 33.76 118.882 31.96C118.192 30.16 117.847 28.015 117.847 25.525V11.98C117.847 9.46 118.192 7.315 118.882 5.545C119.572 3.775 120.712 2.425 122.302 1.495C123.892 0.534998 126.052 0.0549982 128.782 0.0549982C131.542 0.0549982 133.717 0.534998 135.307 1.495C136.927 2.425 138.082 3.775 138.772 5.545C139.462 7.315 139.807 9.46 139.807 11.98V25.525C139.807 28.015 139.462 30.16 138.772 31.96C138.082 33.76 136.927 35.14 135.307 36.1C133.717 37.06 131.542 37.54 128.782 37.54ZM128.782 31.825C129.622 31.825 130.237 31.615 130.627 31.195C131.017 30.775 131.272 30.235 131.392 29.575C131.512 28.915 131.572 28.24 131.572 27.55V10C131.572 9.28 131.512 8.605 131.392 7.975C131.272 7.315 131.017 6.775 130.627 6.355C130.237 5.935 129.622 5.725 128.782 5.725C128.002 5.725 127.417 5.935 127.027 6.355C126.637 6.775 126.382 7.315 126.262 7.975C126.142 8.605 126.082 9.28 126.082 10V27.55C126.082 28.24 126.127 28.915 126.217 29.575C126.337 30.235 126.577 30.775 126.937 31.195C127.327 31.615 127.942 31.825 128.782 31.825ZM144.709 37V0.549997H150.379L157.849 18.1V0.549997H164.509V37H159.064L151.594 18.1V37H144.709Z" fill="white"/>
<path d="M173.218 37V6.535H167.728V0.549997H186.763V6.535H181.318V37H173.218ZM189.972 37V0.549997H200.007C202.467 0.549997 204.597 0.819997 206.397 1.36C208.197 1.9 209.592 2.875 210.582 4.285C211.602 5.665 212.112 7.63 212.112 10.18C212.112 11.68 211.992 13.015 211.752 14.185C211.512 15.355 211.062 16.375 210.402 17.245C209.772 18.085 208.857 18.79 207.657 19.36L212.652 37H204.327L200.322 20.665H198.027V37H189.972ZM198.027 16.03H200.277C201.417 16.03 202.302 15.835 202.932 15.445C203.562 15.025 203.997 14.44 204.237 13.69C204.507 12.91 204.642 11.98 204.642 10.9C204.642 9.34 204.357 8.125 203.787 7.255C203.217 6.385 202.167 5.95 200.637 5.95H198.027V16.03ZM227.043 37.54C224.313 37.54 222.153 37.06 220.563 36.1C218.973 35.14 217.833 33.76 217.143 31.96C216.453 30.16 216.108 28.015 216.108 25.525V11.98C216.108 9.46 216.453 7.315 217.143 5.545C217.833 3.775 218.973 2.425 220.563 1.495C222.153 0.534998 224.313 0.0549982 227.043 0.0549982C229.803 0.0549982 231.978 0.534998 233.568 1.495C235.188 2.425 236.343 3.775 237.033 5.545C237.723 7.315 238.068 9.46 238.068 11.98V25.525C238.068 28.015 237.723 30.16 237.033 31.96C236.343 33.76 235.188 35.14 233.568 36.1C231.978 37.06 229.803 37.54 227.043 37.54ZM227.043 31.825C227.883 31.825 228.498 31.615 228.888 31.195C229.278 30.775 229.533 30.235 229.653 29.575C229.773 28.915 229.833 28.24 229.833 27.55V10C229.833 9.28 229.773 8.605 229.653 7.975C229.533 7.315 229.278 6.775 228.888 6.355C228.498 5.935 227.883 5.725 227.043 5.725C226.263 5.725 225.678 5.935 225.288 6.355C224.898 6.775 224.643 7.315 224.523 7.975C224.403 8.605 224.343 9.28 224.343 10V27.55C224.343 28.24 224.388 28.915 224.478 29.575C224.598 30.235 224.838 30.775 225.198 31.195C225.588 31.615 226.203 31.825 227.043 31.825ZM245.896 37L241.486 0.549997H248.326L250.486 21.79L253.231 0.594999H258.586L261.466 21.655L263.671 0.549997H270.421L266.056 37H259.036L255.931 14.995L253.006 37H245.896Z" fill="#1A7993"/>
</svg>
